<?xml version="1.0" standalone="no"?>
<!DOCTYPE svg PUBLIC "-//W3C//DTD SVG 20010904//EN"
 "http://www.w3.org/TR/2001/REC-SVG-20010904/DTD/svg10.dtd">
<svg version="1.0" xmlns="http://www.w3.org/2000/svg"
 width="192.000000pt" height="192.000000pt" viewBox="0 0 192.000000 192.000000"
 preserveAspectRatio="xMidYMid meet">
<metadata>
Created by potrace 1.11, written by Peter Selinger 2001-2013
</metadata>
<g transform="translate(0.000000,192.000000) scale(0.100000,-0.100000)"
fill="#000000" stroke="none">
<path d="M929 1765 c15 -55 4 -195 -22 -280 -27 -91 -27 -143 0 -206 l20 -44
7 60 c8 60 46 169 74 213 35 55 6 172 -63 258 l-24 29 8 -30z"/>
<path d="M745 1101 c-185 -67 -480 -263 -623 -413 -36 -38 -38 -42 -47 -154
l-6 -79 42 60 c23 33 43 62 45 64 2 2 33 -23 70 -55 36 -32 79 -70 95 -84 l29
-26 -46 -64 c-26 -36 -51 -69 -55 -75 -6 -5 -22 4 -42 25 -41 43 -107 103
-125 114 -10 6 -12 -9 -7 -76 7 -99 8 -109 18 -125 9 -14 150 -59 217 -69 l45
-7 -29 31 c-33 35 -36 28 49 120 l49 53 63 -68 c35 -37 80 -92 100 -121 20
-28 39 -52 42 -53 23 -3 161 -5 161 -2 0 2 -6 12 -12 23 -12 19 -6 28 64 96
l77 76 95 -99 95 -99 58 2 c32 1 63 2 69 3 6 1 58 46 115 101 57 55 106 100
109 100 14 0 129 -139 120 -145 -5 -3 -10 -10 -10 -14 0 -15 231 48 253 68 14
14 30 211 17 211 -4 0 -53 -45 -109 -100 -55 -55 -104 -100 -108 -100 -5 1
-27 33 -50 73 l-43 72 43 40 c64 60 168 150 178 153 4 2 25 -19 46 -47 21 -27
41 -50 44 -50 4 -1 6 39 6 89 l0 90 -61 57 c-84 79 -112 101 -251 194 -125 84
-324 188 -410 214 -74 22 -77 18 -11 -16 32 -17 56 -32 55 -33 -2 -2 -53 -28
-113 -59 l-109 -56 -108 62 -109 62 35 21 c65 39 59 44 -20 15z m505 -92 c30
-19 160 -110 183 -129 9 -8 -210 -143 -221 -138 -15 7 -182 142 -182 147 1 6
172 140 180 140 3 1 21 -9 40 -20z m-514 -41 c38 -29 78 -61 89 -71 23 -21 30
-13 -89 -100 l-67 -49 -42 34 c-23 19 -66 51 -95 70 l-53 36 88 65 c48 36 91
66 94 66 3 1 37 -22 75 -51z m-248 -236 l83 -77 -68 -67 -68 -67 -80 60 c-44
33 -89 67 -99 76 -18 15 -15 18 55 84 41 38 79 69 84 69 6 0 47 -35 93 -78z
m486 44 c23 -19 61 -53 86 -76 l45 -41 -35 -31 c-19 -17 -61 -54 -92 -83 l-57
-53 -34 41 c-19 23 -53 61 -76 85 -23 24 -41 47 -39 51 3 8 150 140 157 140 2
1 22 -14 45 -33z m621 -42 l80 -77 -25 -16 c-13 -9 -60 -43 -104 -76 -43 -33
-85 -64 -93 -70 -10 -7 -17 -5 -24 7 -5 10 -26 35 -45 55 -19 21 -44 50 -55
65 l-19 27 92 80 c51 44 98 81 103 81 6 0 46 -34 90 -76z m-853 -253 l86 -88
-63 -81 -63 -82 -60 73 c-33 39 -74 86 -90 102 l-30 30 66 68 c37 37 67 67 67
67 1 0 40 -40 87 -89z m544 4 l76 -75 -62 -68 c-34 -37 -81 -93 -103 -124 -23
-32 -46 -56 -51 -55 -4 2 -18 21 -31 42 -12 22 -41 69 -64 105 l-42 65 98 92
c54 51 99 93 101 93 1 0 37 -34 78 -75z"/>
</g>
</svg>
